<?xml version="1.0" standalone="no"?>
<!DOCTYPE svg PUBLIC "-//W3C//DTD SVG 20010904//EN"
 "http://www.w3.org/TR/2001/REC-SVG-20010904/DTD/svg10.dtd">
<svg version="1.0" xmlns="http://www.w3.org/2000/svg"
 width="1024.000000pt" height="1024.000000pt" viewBox="0 0 1024.000000 1024.000000"
 preserveAspectRatio="xMidYMid meet">

<g transform="translate(0.000000,1024.000000) scale(0.100000,-0.100000)"
fill="#000000" stroke="none">
<path d="M4718 7063 c-8 -10 -47 -72 -88 -138 -196 -321 -244 -383 -591 -761
-181 -196 -157 -167 -382 -475 -103 -141 -202 -270 -221 -287 -19 -16 -85 -55
-148 -85 -194 -95 -191 -92 -433 -482 -215 -346 -122 -243 -875 -975 -206
-201 -437 -425 -512 -498 l-137 -134 -240 4 c-212 3 -242 1 -257 -13 -13 -13
-14 -21 -5 -38 l12 -21 4272 0 c2350 0 4278 4 4285 9 8 4 12 19 10 32 l-3 24
-249 5 -250 5 -84 120 c-507 717 -628 881 -683 929 -66 56 -149 94 -289 131
-237 63 -276 97 -434 371 -122 212 -637 1111 -699 1219 -131 229 -147 240
-274 190 -76 -31 -87 -29 -255 45 -61 28 -124 50 -138 50 -28 0 -35 -10 -177
-242 -90 -147 -121 -178 -179 -178 -38 0 -92 38 -157 110 -51 57 -93 124 -191
309 -49 92 -71 123 -107 149 -108 79 -134 110 -257 296 -69 105 -143 220 -164
256 -37 61 -63 90 -78 90 -4 0 -14 -8 -22 -17z m94 -200 c35 -54 108 -165 163
-248 90 -136 107 -155 173 -201 71 -49 76 -56 143 -180 102 -186 136 -240 201
-315 98 -114 202 -148 292 -95 55 32 69 49 167 212 43 72 87 142 97 154 l19
23 129 -54 c149 -62 195 -67 281 -29 41 17 56 20 67 11 21 -18 169 -273 772
-1330 202 -354 237 -386 514 -466 154 -44 213 -72 271 -127 41 -40 138 -169
289 -383 31 -44 139 -195 239 -335 l182 -255 -48 -6 c-26 -4 -1686 -7 -3688
-8 l-3640 -1 65 62 c36 35 211 204 389 378 355 344 583 565 704 680 101 96
145 157 307 420 173 280 241 380 276 406 16 11 85 48 154 82 93 45 137 73 171
109 26 26 122 152 214 278 194 266 209 285 410 505 318 348 373 418 545 702
36 59 68 108 73 108 4 0 35 -44 69 -97z"/>
</g>
</svg>
